<svg xmlns="http://www.w3.org/2000/svg" viewBox="0 0 100 100">
  <!-- Chess Knight Icon -->
  <defs>
    <linearGradient id="grad" x1="0%" y1="0%" x2="100%" y2="100%">
      <stop offset="0%" style="stop-color:#2c3e50;stop-opacity:1" />
      <stop offset="100%" style="stop-color:#3498db;stop-opacity:1" />
    </linearGradient>
  </defs>
  <circle cx="50" cy="50" r="48" fill="url(#grad)" stroke="#fff" stroke-width="2"/>
  <path d="M65 75H35c0 0 2-7 2-10c0-3-1-6-1-6s-4-2-4-8c0-6 4-8 4-8s-3-5 1-11c4-6 10-7 13-7c3 0 9 1 13 7c4 6 1 11 1 11s4 2 4 8c0 6-4 8-4 8s-1 3-1 6c0 3 2 10 2 10z" fill="white"/>
</svg>